<?xml version="1.0" encoding="UTF-8"?>
<svg id="Ebene_1" data-name="Ebene 1" xmlns="http://www.w3.org/2000/svg" viewBox="0 0 317.27 60.507">
  <defs>
    <style>
      .cls-1 {
        fill: #42bccf;
        stroke-width: 0px;
      }
    </style>
  </defs>
  <path class="cls-1" d="m171.855,33.374c6.318-.215,11.269-.139,14.847.226,3.584.367,6.269.884,8.056,1.551,1.787.669,2.789,1.433,3.001,2.295.207.863,0,1.681-.632,2.456-2.952.431-6.634.819-11.057,1.164-4.423.345-9.003.669-13.742.97-4.739.302-9.423.572-14.058.808-4.63.237-8.737.442-12.32.614-2.527-.215-5.42-.356-8.688-.42-3.263-.065-6.58-.107-9.951-.129-3.367-.021-6.792-.042-10.268-.065-3.475-.021-6.791-.075-9.951-.162-8.845-.301-17.266-.743-25.273-1.325-8.001-.582-16.319-1.044-24.957-1.39-1.895-.086-3.682-.054-5.371.097-1.683.152-3.262.184-4.738.097-.839-.042-1.421-.172-1.737-.388-.316-.215-.997-.344-2.054-.388-2.314-.129-4.211-.162-5.686-.097-1.471.065-3.263-.01-5.371-.226-1.684-.215-4.156-.485-7.424-.808-3.263-.323-6.684-.441-10.267-.355-1.263-.388-2.735-.753-4.423-1.099-1.683-.344-3.208-.7-4.58-1.066-1.368-.366-2.577-.776-3.634-1.228-1.051-.453-1.579-1.002-1.579-1.648,2.108-.344,4.422-.571,6.95-.679,2.527-.107,5.054-.215,7.582-.323,2.527-.107,4.896-.269,7.108-.485,2.211-.215,3.948-.582,5.212-1.099h6.318c2.527,0,5.005-.021,7.424-.065,2.424-.042,4.635-.139,6.634-.291,2.004-.15,3.317-.398,3.948-.743,10.11.776,20.114,1.498,30.012,2.165,9.901.669,19.853,1.218,29.854,1.648,10.006.431,20.06.701,30.17.808,10.109.108,20.327-.032,30.643-.42Z"/>
  <path class="cls-1" d="m54.554,9.177c-1.117,0-2.323.078-3.617.234-1.296.157-10.568,1.324-11.818,1.502-.894.134-1.753.246-2.579.334-.827.09-1.574.157-2.244.201-.313.983-.626,1.854-.938,2.612-.313.76-2.648,6.497-3.005,7.21-.358.76-.681,1.53-.971,2.311-.291.782-.569,1.619-.837,2.512-.447.715-.815,1.373-1.105,1.976-.291.603-.525,1.284-.704,2.043-.536.67-.938,1.373-1.206,2.11s-.469,1.374-.603,1.909l-.268.804c-.268.268-.425.48-.469.636-.045.157-.157.302-.335.436-.045.492-3.201,8.983-3.469,9.474-.09.224-.157.436-.201.636-.045.201-.067.347-.067.436,0,.447-.112.737-.335.871.044.224.044.458,0,.704-.045.246-.09.48-.134.703-.134.536-.179.961-.134,1.273.134.179.256.335.368.469.111.134.189.313.234.536.268.179.469.291.603.335.178.134.446.291.804.469l.603.669c.223,1.296.022,2.323-.603,3.082-.67.848-1.809,1.272-3.416,1.272h-.804c-.224-.224-.358-.402-.402-.536-.358-.134-.648-.246-.871-.335-.224-.09-.425-.268-.603-.536-.581-.268-1.05-.491-1.407-.669l-.603-.335v-.804c-.313-.402-.547-.848-.703-1.339-.157-.491-.28-.982-.369-1.474-.09-.402-.19-.781-.301-1.139-.112-.357-.257-.67-.436-.938-.09-2.589,3.156-12.778,3.737-14.564.58-1.785,1.183-3.505,1.809-5.158.357-.893.714-1.797,1.072-2.713.357-.915.67-1.864.938-2.847l.603-.67c.312-.713.569-1.306.771-1.775.201-.469,2.412-5.948,2.636-6.44.134-.312.256-.613.369-.904.111-.29.211-.546.301-.771-.268,0-.514.012-.737.034-.224.023-.447.056-.67.101-.268.045-.514.078-.737.1-.224.023-.447.034-.67.034-.313,0-.536-.022-.67-.067-.492.224-1.027.335-1.607.335h-.67c-.134,0-.257-.011-.368-.034-.112-.022-.212-.034-.302-.034-.447,0-.804.067-1.072.201h-2.21c-.09,0-.201.012-.334.034-.134.023-.246.033-.335.033-.313,0-.648-.033-1.005-.101-.358-.067-.737-.211-1.139-.435-.536-.714-.894-1.094-1.072-1.139l-.603-.804c-.045-.268-.112-.524-.201-.77-.09-.245-.179-.524-.268-.837-.179-.446-.346-.926-.502-1.44-.157-.513-.234-1.127-.234-1.842.044-.357.134-.625.268-.804.134-.178.245-.335.335-.469l.201-1.005.871.067h1.875c1.428,0,2.88-.055,4.354-.167,1.474-.111,2.992-.234,4.555-.368.893-.089,1.797-.178,2.713-.268.915-.089,1.864-.178,2.847-.268.178-.402.357-.781.536-1.139l.67-.335c.804-.044,1.373.057,1.708.302.335.246.613.48.837.703.982-.089,1.976-.189,2.981-.301,1.004-.111,2.02-.257,3.048-.436,1.518-.223,11.047-1.424,12.588-1.603,1.541-.178,3.025-.268,4.455-.268.625,0,1.228.023,1.809.067.58.045,1.116.112,1.607.201l.67.469c.134.268.324.514.569.737.245.224.502.447.771.669.536.492,1.072,1.072,1.607,1.742.536.67.737,1.653.603,2.947-.358.536-.626.849-.804.938l-.603.804-.67-.067c-.268,0-.514.033-.737.1-.224.067-.447.146-.67.235-.179.09-.358.167-.536.234-.179.067-.38.124-.603.167-.402,0-.726-.011-.971-.034-.246-.022-.502-.033-.77-.033Z"/>
  <path class="cls-1" d="m65.011,46.898c.089,1.162-.045,2.122-.402,2.88-.358.76-.849,1.407-1.474,1.942-.626.536-1.34.961-2.144,1.273-.804.313-1.585.603-2.344.871-.358-.224-.704-.458-1.038-.703-.335-.245-.727-.436-1.172-.569-.581-1.072-1.139-2.02-1.675-2.847-.536-.826-.782-1.775-.737-2.847,0-.044.034-.29.101-.737.067-.446.156-.938.268-1.474.111-.536.201-1.038.268-1.507.067-.469.1-.726.1-.771-1.028.09-2.099.313-3.215.67-1.117.358-2.2.782-3.249,1.272-1.05.492-2.032.983-2.947,1.474-.916.492-1.664.916-2.244,1.273,0,.134-.09.458-.268.971-.179.514-.402,1.05-.67,1.607-.268.559-.559,1.062-.871,1.507-.313.447-.626.67-.938.67.044.134.111.268.201.402.089.134.089.313,0,.536-.626.179-1.184.414-1.675.704-.492.29-1.005.536-1.541.737-.536.201-1.117.301-1.742.301s-1.363-.224-2.21-.67c0-.268-.112-.502-.335-.703-.224-.201-.458-.379-.703-.536-.246-.156-.458-.29-.636-.402-.179-.111-.268-.211-.268-.301-.224.045-.313-.111-.268-.469.044-.357.223-.446.536-.268-.492-.625-.793-1.172-.904-1.641s-.369-1.06-.771-1.775c.09-.089.167-.245.234-.469.067-.223.124-.424.167-.603.045-.178.112-.312.201-.402.089-.089.201-.067.335.067-.09-.402-.09-.737,0-1.005.089-.268.178-.513.268-.737.089-.223.156-.446.201-.67.044-.223-.023-.469-.201-.737.714-.981,1.183-2.043,1.407-3.182.223-1.139.357-2.177.402-3.115.312-.312.591-.759.837-1.339.245-.58.436-1.172.569-1.775.134-.603.189-1.183.167-1.741-.023-.558-.101-1.016-.234-1.374.044-.223.29-.29.737-.201.268-1.474.458-3.137.569-4.99.111-1.853.301-1.617.569-3.292.268-1.674.714-3.148,1.34-4.421.625-1.272,1.629-2.11,3.014-2.512.268.938.613,1.765,1.038,2.479.424.715.893,1.396,1.407,2.043.513.648,1.027,1.306,1.541,1.976.513.67.993,1.43,1.44,2.277-.045.849-.134,1.832-.268,2.947-.134,1.117-.301.255-.502,1.416-.201,1.162-.402,2.277-.603,3.349-.201,1.072-.391,1.988-.569,2.747.044.224.167.358.369.402.201.045.234.246.101.603,1.072-.268,2.188-.513,3.349-.737,1.161-.223,2.321-.469,3.483-.737,1.161-.268,2.288-.569,3.383-.904,1.094-.334,2.11-.747,3.048-1.239.223-1.742.513-3.483.871-5.225.357-1.741.402-3.527.134-5.358.223-.178.402-.402.536-.67s.357-.446.67-.536c-.224-.848-.313-1.742-.268-2.68.044-.938.211-1.831.502-2.679.29-.848.714-1.574,1.272-2.177.558-.603,1.239-.994,2.043-1.172.491.715.915,1.485,1.273,2.311.357.827.725,1.652,1.105,2.478.379.827.781,1.608,1.206,2.345.424.737.971,1.373,1.641,1.909.134,1.295.234,2.635.301,4.019.067,1.385.123,2.792.167,4.22-.358,1.698-.749,3.339-1.172,4.923-.425,1.585-.726,3.271-.904,5.057-.313.358-.559.76-.737,1.206-.179.447-.358.904-.536,1.373-.179.469-.38.916-.603,1.34-.224.425-.492.793-.804,1.105.178.536.211,1.038.101,1.507-.112.469.01,1.039.368,1.708Z"/>
  <path class="cls-1" d="m109.402,19.085c.044.312.055.547.033.703-.023.157-.045.301-.067.436-.023.134-.034.279-.034.435,0,.157.044.392.134.704-.938,1.519-2.021,2.557-3.249,3.115-1.229.559-2.557.96-3.985,1.206-1.43.246-2.892.502-4.387.771-1.497.268-2.981.849-4.455,1.741-.581-.223-1.105-.223-1.574,0-.469.224-1.15.291-2.043.201-.268.268-.603.458-1.005.569-.402.112-.804.234-1.206.368.178.402.256.815.234,1.239-.023.425.034.771.167,1.039,1.563.134,3.293.112,5.191-.067,1.897-.178,3.762-.29,5.593-.334.044.224.022.368-.067.435-.09.067-.112.19-.067.369.312.224.625.502.938.837.312.335.625.66.938.972.312.313.637.569.971.77.335.201.726.28,1.172.234.178.358.301.749.369,1.172.067.425.01.86-.167,1.306-.715.492-1.43.994-2.144,1.507-.715.514-1.463.971-2.244,1.373-.782.402-1.607.726-2.478.971-.871.246-1.842.347-2.914.301h-.502c-.112,0-.257-.067-.435-.201-.358.224-.86.291-1.507.201-.648-.089-1.15-.022-1.507.201-.492-.223-1.083-.323-1.775-.301-.693.023-1.306-.056-1.842-.235-.715.938-1.363,1.943-1.943,3.015-.581,1.072-1.095,2.21-1.541,3.416,1.518.224,2.78.313,3.785.268,1.005-.044,1.953-.123,2.847-.235.893-.111,1.809-.223,2.747-.334.938-.111,2.12-.145,3.55-.101.893-.491,1.953-.814,3.182-.971,1.228-.156,2.355-.413,3.383-.771.357.134.67.369.938.703.268.335.524.648.77.938.245.291.502.547.771.771.268.224.603.313,1.005.268.178.179.301.392.368.637.067.246.123.48.167.703.044.224.123.414.234.569.111.157.301.212.569.167-.67,1.474-1.44,2.602-2.311,3.383-.871.782-1.865,1.373-2.98,1.775-1.117.402-2.356.715-3.718.938-1.363.224-2.87.492-4.521.804-.402.089-.737.077-1.004-.034-.268-.112-.581-.167-.938-.167-1.028.223-2.255.424-3.684.603-1.43.178-2.88.245-4.354.201-1.474-.045-2.88-.234-4.22-.569-1.34-.335-2.435-.926-3.282-1.775-.358-.312-.592-.68-.703-1.105-.112-.424-.414-.747-.904-.971-.045-.58-.134-1.228-.268-1.942-.134-.714-.268-1.462-.402-2.244-.134-.781-.234-1.551-.302-2.311-.067-.759-.033-1.451.101-2.077.134-.67.413-1.272.837-1.809.424-.536.569-1.116.436-1.742.223-.044.357-.167.402-.368.044-.201.223-.278.536-.234.268-.804.558-1.562.871-2.277.312-.714.636-1.407.971-2.077s.67-1.35,1.004-2.043c.335-.692.659-1.462.972-2.311-.626-.58-1.083-1.216-1.374-1.909-.291-.691-.502-1.383-.636-2.076-.134-.692-.246-1.407-.335-2.144-.09-.737-.246-1.484-.469-2.244.446-.669.993-1.216,1.641-1.641.647-.424,1.35-.77,2.11-1.038.759-.268,1.584-.491,2.479-.67.893-.178,1.831-.379,2.813-.603,1.786-.58,3.383-1.027,4.79-1.34,1.407-.312,2.79-.569,4.153-.771,1.362-.201,2.78-.39,4.253-.569,1.474-.178,3.148-.446,5.024-.804.402.402.781.603,1.139.603.178-.402.391-.524.636-.369.245.157.346.034.302-.368.446.76,1.015,1.396,1.708,1.909.692.514,1.462.949,2.311,1.306Z"/>
  <path class="cls-1" d="m262.727,9.053c.037.264.047.463.028.594-.019.133-.038.255-.057.368-.019.113-.028.236-.028.368,0,.133.037.331.114.595-.793,1.284-1.709,2.161-2.747,2.633-1.039.472-2.161.812-3.369,1.019-1.209.208-2.445.425-3.709.651-1.266.226-2.52.717-3.766,1.472-.491-.188-.934-.188-1.331,0-.396.189-.972.246-1.727.17-.227.227-.509.388-.85.481-.34.095-.679.198-1.019.311.151.34.217.689.198,1.048-.019.36.028.651.142.878,1.321.113,2.784.095,4.389-.057,1.604-.15,3.18-.245,4.728-.283.037.189.019.311-.057.368-.076.057-.095.161-.057.312.264.189.528.425.793.708.264.283.528.558.793.821.264.265.538.481.821.651.283.17.613.237.991.198.151.303.255.633.312.991.057.359.009.727-.142,1.104-.604.416-1.209.84-1.812,1.274-.604.434-1.237.821-1.897,1.161-.661.34-1.359.614-2.095.821-.736.208-1.557.293-2.464.255h-.425c-.095,0-.218-.057-.368-.17-.303.189-.727.246-1.274.17-.548-.075-.973-.019-1.274.17-.416-.189-.916-.273-1.5-.255-.586.019-1.104-.047-1.557-.199-.604.793-1.152,1.642-1.642,2.549-.491.906-.925,1.869-1.302,2.888,1.283.189,2.35.265,3.2.227.85-.037,1.651-.104,2.407-.199.755-.094,1.529-.188,2.322-.283.793-.094,1.792-.122,3.001-.085.755-.415,1.651-.689,2.69-.821,1.038-.132,1.991-.349,2.86-.651.302.113.566.312.793.594.226.283.443.548.651.793.207.246.425.463.651.651.227.189.509.265.85.226.15.151.255.331.311.538.057.208.104.406.142.594.037.189.104.35.198.481.094.133.255.18.481.142-.566,1.246-1.217,2.2-1.954,2.86-.736.661-1.576,1.161-2.52,1.5-.944.34-1.992.604-3.143.793-1.152.189-2.426.416-3.822.679-.34.075-.623.065-.849-.028-.227-.095-.491-.142-.793-.142-.869.189-1.907.358-3.114.51-1.209.15-2.435.207-3.681.17-1.246-.038-2.435-.198-3.567-.481-1.133-.283-2.058-.783-2.775-1.5-.303-.264-.501-.575-.594-.935-.095-.358-.35-.632-.764-.821-.038-.49-.114-1.038-.227-1.642-.114-.603-.227-1.236-.34-1.897-.114-.66-.198-1.311-.255-1.953-.057-.641-.028-1.226.085-1.756.114-.566.349-1.076.708-1.529.358-.453.481-.943.368-1.472.188-.037.302-.142.34-.311.037-.17.188-.235.453-.198.227-.679.472-1.321.736-1.925.263-.603.538-1.189.821-1.756s.566-1.141.849-1.727c.283-.585.557-1.236.821-1.954-.529-.49-.916-1.028-1.161-1.614-.246-.585-.425-1.169-.538-1.755-.113-.585-.208-1.189-.283-1.812-.076-.623-.208-1.254-.396-1.897.377-.566.84-1.028,1.387-1.387.547-.358,1.141-.651,1.784-.878.641-.227,1.339-.415,2.095-.566.755-.15,1.548-.32,2.378-.509,1.51-.49,2.86-.868,4.049-1.133,1.189-.264,2.359-.481,3.511-.651,1.151-.17,2.35-.33,3.596-.481,1.246-.15,2.662-.377,4.247-.679.34.34.66.51.963.51.15-.34.33-.443.538-.312.207.133.292.028.255-.311.377.642.858,1.18,1.444,1.614.585.434,1.236.802,1.954,1.104Z"/>
  <path class="cls-1" d="m156.533,55.19c-.447.224-.86.425-1.239.603-.38.179-.815.268-1.306.268-1.742-1.294-2.646-3.55-2.713-6.765-.067-3.215.613-7.301,2.043-12.258.223-.134.335-.402.335-.804l-.603-.67c-.179,0-.346.023-.502.067-.157.045-.28.201-.369.469-1.162.849-2.435,1.731-3.818,2.646-1.385.916-2.825,1.764-4.321,2.545-1.497.782-3.014,1.418-4.555,1.909-1.541.492-3.048.737-4.521.737-3.751,0-6.564-1.897-8.44-5.693l-.536-1.005-.536.871c-.134.179-.334.547-.603,1.105-.268.559-.536,1.195-.804,1.909-.268.715-.502,1.44-.704,2.177-.201.737-.279,1.373-.234,1.909-.402.402-.827.871-1.272,1.406-.447.536-.782,1.139-1.005,1.809-.09.358-.045.693.134,1.005-.09.402-.291.715-.603.938-.179.224-.369.435-.569.636-.201.201-.369.414-.502.636-.09.224-.146.447-.167.67-.023.224-.057.447-.101.67,0,.313-.045.603-.134.871-.76,1.563-1.363,2.579-1.809,3.048-.447.469-1.05.703-1.809.703-.358,0-.938-.067-1.742-.201-.581-.626-1.105-1.484-1.574-2.579-.469-1.094-.827-2.266-1.072-3.517-.246-1.25-.358-2.512-.334-3.785.022-1.272.234-2.378.636-3.315,0-.044.178-.491.536-1.34.357-.848.814-1.942,1.373-3.282.558-1.339,1.194-2.824,1.909-4.454.714-1.63,1.429-3.215,2.144-4.756.714-1.541,1.395-2.958,2.043-4.253.647-1.295,1.194-2.277,1.641-2.947.357-.536.68-1.039.971-1.507.29-.469.569-.926.837-1.373.804-1.384,1.574-2.534,2.311-3.45.737-.915,1.819-1.641,3.249-2.177.982.402,1.697.871,2.144,1.406l.134.737c.178.447.446.669.804.669.491.134.904.258,1.239.369.335.112.704.212,1.105.301.312.358.603.782.871,1.273.357.536.703,1.061,1.038,1.574.335.514.603,1.028.804,1.541.201.514.312,1.038.334,1.574.022.536-.078,1.095-.301,1.675l.067.67c.223.402.268.96.134,1.674-.045.313-.067.636-.067.971s.044.704.134,1.105c.804.626,1.518.938,2.144.938.714,0,1.373-.167,1.976-.502.603-.335,1.172-.681,1.708-1.039.357-.268.714-.502,1.072-.703.357-.201.713-.324,1.072-.369.804-.759,1.529-1.429,2.177-2.009.647-.58,1.328-1.161,2.043-1.742,1.34-1.072,2.634-2.232,3.885-3.483,1.25-1.25,2.254-2.813,3.014-4.689.446-.268.915-.402,1.407-.402s1.004.112,1.541.335c.536.224,1.049.447,1.541.67.134.09.256.157.368.201.111.045.211.09.302.134,0,.447.178.827.536,1.139.178.134.29.224.335.268.044.045.111.09.201.134.669.358,1.094.715,1.272,1.072.312,1.027.871,1.808,1.675,2.344-.09.447-.079.86.033,1.239.111.38.256.77.436,1.172.044.134.089.268.134.402.044.134.111.291.201.469l-1.273-.134.201,1.272c.089.626.034,1.318-.167,2.077-.201.76-.436,1.362-.703,1.809.044,1.162.077,2.066.1,2.712.022.648-.011,1.251-.1,1.809-.09.559-.213,1.083-.369,1.574-.157.492-.368,1.028-.636,1.607.178,2.858-.146,5.459-.971,7.804-.827,2.344-1.686,4.544-2.579,6.598-.09.224-.19.447-.301.669-.112.224-.212.447-.301.67-.402.134-.76.279-1.072.436-.313.157-.648.324-1.005.502Z"/>
  <path class="cls-1" d="m205.832,21.109c.044.313.055.547.032.703-.024.157-.045.301-.068.435-.023.134-.034.279-.034.435,0,.157.043.392.133.704-.939,1.517-2.024,2.554-3.252,3.11-1.23.557-1.559.957-2.987,1.2-1.43.244-2.893.499-4.389.765-1.497.266-1.982.845-3.456,1.735-.581-.223-1.105-.224-1.574-.002-.47.224-1.151.29-2.043.198-.269.268-.604.458-1.006.568-.402.111-.804.233-1.207.367.177.403.256.816.233,1.24-.023.425.032.771.167,1.039,1.562.136,4.292.116,6.191-.061,1.899-.175,3.762-.285,5.594-.327.835.238,2.835,1.238,3.88,3.622.177.358.301.749.367,1.173.067.425.01.86-.169,1.306-.715.491-1.431.992-2.146,1.505-.716.513-1.464.969-2.246,1.37s-1.608.724-2.48.968c-.87.245-1.842.344-2.913.297h-.503c-.112,0-1.258-.068-1.435-.202-.358.224-.861.29-1.507.199-.647-.09-1.15-.023-1.507.199-.492-.224-1.084-.325-1.775-.304-.099.003-.194.011-.286.022-1.039.124-1.969.694-2.636,1.5-.311.376-.607.774-.866,1.253-.582,1.071-1.098,2.209-1.545,3.414,1.517.226,1.78.317,2.784.273,1.005-.043,1.953-.12,2.848-.231.893-.11.809-.22,1.747-.331.938-.11,2.12-.142,3.55-.096.893-.49,2.954-.812,4.183-.967,1.228-.155,1.356-.41,2.384-.766.356.134.669.37.937.704.268.335,1.844,2.371,1.911,2.617.067.246.121.48.166.703.045.224.123.414.235.57.11.157-.875,2.768-1.747,3.548-.871.781-1.867,1.371-2.983,1.771-1.118.4-1.357.712-2.719.933-1.363.222-2.871.488-4.523.798-.401.088-.736.076-1.005-.035-.267-.112.42-.168.063-.169-1.028.222-2.256.421-3.684.598-1.43.176-1.881.241-3.355.195-1.474-.047-2.88-.238-4.219-.575s-2.433-.929-3.28-1.779c-.358-.312-.591-.681-.702-1.106-.112-.424-.413-.748-.903-.972-.045-.58-.133-1.228-.266-1.943-.133-.714-.266-1.462-.399-2.245-.133-.781-.232-1.551-.299-2.311-.066-.759-.031-1.451.103-2.077.135-.67.414-1.272.84-1.807.425-.535.571-1.115.438-1.741.223-.044.357-.167.402-.368.044-.201.223-.278.536-.234.269-.803.56-1.562.874-2.276.312-.713.638-1.406.974-2.075s.672-1.349,1.007-2.042c.336-.691.661-1.461.974-2.31-.625-.58-1.081-1.218-1.371-1.911-.29-.692-.501-1.384-.634-2.077-.133-.692-.244-1.407-.332-2.144-.089-.737-.244-1.484-.466-2.245.447-.669.995-1.215,1.643-1.639.648-.423,1.351-.768,2.112-1.035.759-.267,1.585-.489,2.478-.667.894-.177,1.832-.377,2.814-.599,1.787-.578,3.384-1.022,4.791-1.334,1.408-.31,2.792-.566,4.154-.765,1.362-.199,1.781-.386,3.255-.564,1.474-.176,2.148-.442,4.024-.797.402.402.78.604,1.138.605.178-.402.391-.524.637-.368.244.158.345.034.301-.368.445.76,1.014,1.397,1.706,1.911.692.515,1.462.951,2.31,1.309Z"/>
  <path class="cls-1" d="m224.271,56.659c-1.251.402-3.612.804-5.086,1.206s-2.947.603-4.421.603c-2.233,0-3.997-.559-5.292-1.675-.224-.491-.425-.826-.603-1.004-.134-.178-.258-.369-.368-.569-.112-.201-.19-.479-.234-.837-.536-.625-.961-1.35-1.273-2.177-.312-.826-.525-1.674-.636-2.545-.112-.871-.134-1.752-.067-2.646.067-.893.212-1.742.436-2.545.089-.178.145-.357.168-.536.021-.178.055-.378.1-.603.179-.714.369-1.407.569-2.077.201-.67.479-1.25.838-1.742-.179-.402-.179-.848,0-1.339.178-.491.379-.938.603-1.34.625-1.696,1.149-3.137,1.574-4.32.424-1.183.859-2.355,1.307-3.517.759-2.01,1.474-3.996,2.143-5.961.67-1.965,1.273-4.086,1.809-6.364.357-.223.625-.379.805-.469.268-.089.49-.156.669-.201.805.402,1.742.793,2.813,1.172,1.072.38,1.965.569,2.68.569.356.224.58.392.67.502.089.112.178.212.268.301.491.581.915,1.172,1.272,1.775.357.603.47,1.396.335,2.378-.268.402-.469.603-.603.603-.224.894-.458,1.653-.703,2.278-.246.625-.503,1.25-.771,1.875-.312.67-.603,1.339-.871,2.009-.268.67-.491,1.497-.67,2.479-.179.224-.301.425-.368.603-.066.179-.146.38-.234.603-.09.224-.19.458-.302.704-.111.246-.279.458-.502.636-.134,1.162-.347,2.1-.637,2.813-.291.715-.592,1.43-.904,2.144-.535,1.296-1.016,2.59-1.439,3.885-.425,1.295-.682,2.769-.771,4.421.223-.089.436-.134.637-.134h.569c.401,0,.87.067,1.406.201,1.34-.714,3.802-1.139,5.388-1.272,1.584-.134,4.158-.223,5.722-.268h2.876c.625,0,1.206-.044,1.741-.134.402.224.658.347.771.369.111.023.278.034.502.034.312,0,.58.023.805.067.535.492,2.048.849,2.54,1.072.491.224,2.005.425,2.541.603.49.179,1.971.369,2.439.569.47.201,1.927.48,2.374.837l.469,2.88c.312.402.445.67.401.804,0,.358-.09.626-.268.804l.134.737c-.67.134-1.128.291-1.373.469-.246.179-1.48.38-1.703.603-.358.045-1.614.067-1.771.067h-.436c-.626,0-2.385.112-3.277.335-1.206-.402-3.456-.603-4.751-.603-.492,0-1.005.023-1.541.067-.535.045-2.071.09-2.607.134-.536.09-1.083.157-1.641.201-.56.045-1.129.067-1.708.067l-2.541.402Z"/>
  <path class="cls-1" d="m264.051,28.044c.242-.77.631-1.431,1.168-1.981.536-.55,1.123-1.018,1.764-1.403.639-.385,1.305-.706,1.998-.963.691-.256,1.349-.477,1.971-.66,1.383-.623,2.862-1.219,4.437-1.789,1.573-.568,3.182-1.073,4.826-1.513,1.642-.44,3.328-.724,5.058-.853,1.729-.128,3.546.101,5.448.688.104.367.259.716.467,1.046.207.33.423.66.648.99.225.33.423.652.597.963.172.312.276.633.311.963.346.33.623.688.831,1.073.207.385.241.89.104,1.513-.346.294-.684.56-1.012.798-.329.239-.683.45-1.064.633-1.28-.331-2.577-.44-3.891-.331-1.315.11-2.49.202-3.528.275-.312-.33-.684-.495-1.116-.495s-.882.074-1.349.22c-.467.147-.934.294-1.401.44-.467.147-.909.184-1.323.11-.346.294-.77.487-1.272.578-.502.092-1.046.174-1.634.247-.036.184,0,.302.104.358.104.055.12.174.051.357.208.257.475.44.804.55.329.11.675.22,1.038.33.363.11.683.248.96.413.277.165.467.432.571.798.519,0,.968.129,1.349.385.381.257.691.569.934.935.241.367.423.762.545,1.183.121.422.182.798.182,1.128.104.294.225.422.363.385.138-.037.294.037.467.22.104.477.364.963.778,1.458.415.495.744,1.037.986,1.623.069.918.12,1.734.155,2.449.034.715-.086,1.44-.363,2.174-.519,1.357-1.237,2.568-2.153,3.632-.917,1.064-1.955,2.008-3.114,2.834-1.159.825-2.396,1.532-3.71,2.118-1.315.587-2.595,1.082-3.84,1.486-.138-.037-.277-.037-.415,0-.139.036-.174-.055-.104-.275-.277.256-.579.421-.908.495-.329.073-.683.101-1.064.083-.381-.019-.77-.047-1.167-.083-.399-.037-.771-.019-1.116.055-.243-.257-.459-.505-.649-.743s-.337-.541-.441-.908c-.173,0-.251-.091-.233-.275.017-.183-.044-.275-.182-.275.207-.366.302-.578.285-.633-.018-.055-.07-.101-.156-.138-.086-.036-.164-.083-.233-.138-.07-.055-.087-.138-.052-.247.138-.293.19-.633.156-1.018-.035-.385-.07-.779-.104-1.183-.036-.404-.009-.789.077-1.156.086-.366.337-.66.753-.88,1.176.147,2.291.101,3.347-.138,1.055-.238,2.049-.578,2.984-1.018s1.825-.917,2.673-1.431c.847-.513,1.686-.971,2.516-1.375.104-.33.25-.605.441-.825.19-.22.39-.421.597-.605.207-.183.397-.385.571-.605.172-.22.293-.495.363-.825.034-.256-.026-.413-.182-.468-.156-.055-.234-.193-.234-.413l-.571-.165c-.657-.403-1.401-.743-2.231-1.018s-1.539-.578-2.127-.908c-.381.22-.735.275-1.064.165-.329-.11-.753-.22-1.272-.33-1.176-.073-2.309-.201-3.399-.385-1.089-.183-2.136-.513-3.139-.991-.07-.183-.156-.348-.259-.495-.104-.146-.294-.183-.571-.11-.207-.293-.415-.578-.623-.853-.207-.275-.398-.578-.57-.908.069-.44.12-.816.155-1.128.034-.311-.07-.614-.311-.908.138-.477.241-.862.311-1.156.07-.293.07-.678,0-1.156Z"/>
  <path class="cls-1" d="m316.921,50.775c-.272.815-.708,1.514-1.311,2.096-.601.582-1.261,1.077-1.98,1.485-.717.408-.465.747-1.242,1.019-.776.271-.514.504-1.213.699-1.552.66-3.212,1.29-4.979,1.893-1.766.602-3.571,1.136-5.416,1.601-1.843.466-3.736.766-5.677.903-1.941.135-3.979-.107-6.115-.728-.116-.388-.291-.757-.525-1.107-.233-.349-.475-.699-.728-1.048-.252-.349-.475-.69-.67-1.019-.194-.33-.31-.669-.349-1.019-.388-.349-.699-.728-.932-1.136-.233-.408-.271-.942-.116-1.602.389-.311.768-.592,1.136-.844.369-.253.767-.476,1.194-.67,1.437.35,2.893.466,4.367.35,1.476-.117,2.795-.214,3.96-.291.35.349.768.524,1.252.524s.99-.078,1.514-.233c.525-.156,3.922-1.097,4.484-1.194.563-.097,1.174-.185,1.834-.262.04-.195-.41-.735-.174-.757-.233-.272-.533-.466-.902-.582-.369-.117-.757-.233-1.165-.349-.408-.117-.767-.262-1.077-.437-.311-.175-.525-.457-.641-.844-.582,0-1.086-.137-1.514-.408-.427-.272-.776-.602-1.049-.99-.271-.388-.475-.806-.611-1.252-.136-.447-.204-.844-.204-1.194-.116-.311-.252-.447-.408-.408-.155.039-.329-.039-.524-.233-.117-.505-.408-1.019-.874-1.544-.466-.524-.835-1.097-1.107-1.718-.077-.971-.135-1.835-.174-2.592-.038-.757.097-1.524.408-2.3.582-1.437,1.388-2.718,2.416-3.843,1.029-1.126,2.194-2.125,3.495-2.999,1.301-.873,2.689-1.621,4.164-2.242,1.476-.621,2.912-1.145,4.31-1.572.155.039.311.039.465,0,.156-.038.195.058.117.291.311-.271.65-.446,1.019-.524.369-.077.767-.107,1.194-.087.428.02.864.049,1.31.087.447.039.865.02,1.252-.058.273.272.515.534.728.786s.378.572.495.961c.194,0,.282.096.261.291-.019.194.049.291.204.291-.233.388-.339.612-.32.67.02.058.078.107.175.146.097.038.184.087.261.146.079.058.098.146.059.262-.155.31-.213.67-.175,1.077.039.408.078.824.116,1.252.04.427.01.835-.087,1.223-.097.388-.379.699-.845.932-1.319-.155-2.572-.107-3.756.146-1.184.252-2.3.612-3.348,1.077s-2.048.97-3,1.514c-.951.543-1.892,1.028-2.824,1.456-.116.349-.281.641-.495.874-.213.233-.437.446-.67.641-.233.194-.446.408-.641.641-.194.233-.329.524-.408.874-.038.271.03.437.204.495.175.058.262.204.262.437l.641.174c.738.427,1.572.786,2.504,1.077s1.728.611,2.387.961c.428-.233.825-.291,1.194-.175.369.116.845.233,1.427.349,1.32.077,1.591.213,2.815.408,1.223.194,1.398.543,2.523,1.049.078.194.175.368.291.524.116.155.33.194.641.117.233.31.465.611.699.902.233.291.447.611.64.961-.077.466-.135.864-.174,1.194-.038.329.078.649.349.961-.155.504-.271.912-.349,1.223-.078.31-.078.718,0,1.223Z"/>
</svg>