<?xml version="1.0" encoding="UTF-8"?>
<svg id="Ebene_1" data-name="Ebene 1" xmlns="http://www.w3.org/2000/svg" viewBox="0 0 434.804 122.07">
  <path d="M6.076,33.66h10.21l5.016-22.606h7.96l-4.87,22.606h12.638l-1.571,7.254h-12.638l-13.793,63.901c-1.446,7.055-.374,9.995,5.105,9.995,2.718,0,5.001-.436,6.668-.782l-1.516,6.803c-2.56,.72-4.615,.948-8.219,.948-7.376,0-13.015-3.487-10.427-15.504L14.66,40.914H4.505l1.571-7.254Z"/>
  <path d="M59.073,0l-8.944,42.472c3.514-6.529,9.193-10.195,16.167-10.195,12.825,0,15.268,9.65,12.646,22.303l-14.092,66.106h-8.133l13.663-64.363c1.847-8.978,2.199-16.731-7.021-16.731-9.946,0-14.78,10.484-17.727,24.062l-12.155,57.032h-8.133L50.94,0h8.133Z"/>
  <path d="M92.829,77.888c-.726,3.195-2.359,11.222-3.23,15.288-2.545,12.18-2.054,21.752,7.747,21.752,8.349,0,11.185-7.069,13.356-16.621l.519-2.304h8.077l-.636,2.601c-2.622,10.641-5.867,23.467-22.174,23.467-18.002,0-17.823-15.435-14.682-30.363l6.717-31.945c2.795-13.573,7.229-27.457,23.156-27.457,18.037,0,18.079,15.481,15.492,27.527-.726,3.34-3.017,14.281-3.888,18.056h-30.453Zm24.091-7.059c.581-2.904,2.276-10.571,2.857-13.33,2.054-9.863,.111-18.19-8.673-18.19-9.662,0-12.491,11.272-14.165,19.441l-2.594,12.079h22.576Z"/>
  <path d="M138.672,58.613c3.106-14.702,4.206-20.54,5.071-24.953h7.642c-.318,2.255-.955,6.301-1.474,8.723,3.57-6.668,9.132-10.106,15.793-10.106,6.275,0,10.37,3.224,11,10.189,3.452-5.741,9.422-10.189,16.879-10.189,7.874,0,15.2,4.359,11.769,20.65l-14.382,67.759h-8.161l14.036-66.002c1.646-8.376,1.653-15.092-6.329-15.092-8.583,0-13.127,10.104-15.175,19.478l-13.026,61.617h-8.188l13.718-64.93c2.601-11.849,.961-16.164-5.575-16.164-8.757,0-13.736,10.831-15.901,20.847l-12.764,60.248h-8.133l13.199-62.073Z"/>
  <path d="M219.246,77.888c-.726,3.195-2.359,11.222-3.23,15.288-2.545,12.18-2.054,21.752,7.747,21.752,8.349,0,11.185-7.069,13.356-16.621l.519-2.304h8.077l-.636,2.601c-2.622,10.641-5.867,23.467-22.174,23.467-18.002,0-17.823-15.435-14.682-30.363l6.717-31.945c2.795-13.573,7.229-27.457,23.156-27.457,18.037,0,18.079,15.481,15.491,27.527-.726,3.34-3.017,14.281-3.888,18.056h-30.453Zm24.091-7.059c.581-2.904,2.276-10.571,2.857-13.33,2.054-9.863,.11-18.19-8.674-18.19-9.662,0-12.491,11.272-14.165,19.441l-2.594,12.079h22.576Z"/>
  <path d="M250.625,120.687L276.22,.093h15.146l-25.596,120.593h-15.146Z"/>
  <path d="M299.232,79.945c-.258,1.137-2.733,12.905-3.043,14.352-1.798,8.346-1.399,15.207,5.876,15.207,6.759,0,8.66-6.415,9.99-12.6l.519-2.491h14.903l-.449,2.04c-2.715,12.698-6.989,25.617-26.382,25.617-21.556,0-21.938-16.744-18.703-31.859l6.624-31.197c2.888-13.854,7.696-28.486,27.177-28.486,21.122,0,22.474,15.201,19.325,29.958-.259,1.189-3.858,18.115-4.168,19.459h-31.669Zm19.604-12.203c.207-1.034,2.369-11.225,2.576-12.208,1.399-6.964,.484-13.047-6.43-13.047-6.669,0-9.124,6.129-10.611,13.27l-2.594,11.985h17.059Z"/>
  <path d="M348.298,93.547l-.762,3.546c-1.417,7.155-.521,12.774,6.203,12.774,4.822,0,7.154-2.922,8.554-8.934,2.23-9.457-.605-15.007-7.592-21.768-10.967-10.5-14.044-17.021-11.674-29.837,2.369-12.573,10.223-18.922,22.057-18.922,16,0,22.024,10.617,19.273,24.354l-.692,3.459h-14.245l.691-4.151c1.263-7.313,.242-11.46-5.286-11.46-3.854,0-6.359,2.853-7.31,8.555-.899,5.495-.312,8.918,6.916,15.921,12.626,12.281,15.636,19.892,12.766,33.968-2.871,14.061-10.653,21.018-24.271,21.018-19.047,0-23.32-12.056-19.757-27.037l.347-1.487h14.782Z"/>
  <path d="M398.102,93.547l-.762,3.546c-1.417,7.155-.521,12.774,6.203,12.774,4.822,0,7.154-2.922,8.554-8.934,2.23-9.457-.605-15.007-7.592-21.768-10.967-10.5-14.044-17.021-11.674-29.837,2.369-12.573,10.223-18.922,22.057-18.922,16,0,22.024,10.617,19.273,24.354l-.692,3.459h-14.245l.691-4.151c1.263-7.313,.242-11.46-5.286-11.46-3.854,0-6.359,2.853-7.31,8.555-.899,5.495-.312,8.918,6.916,15.921,12.626,12.281,15.636,19.892,12.766,33.968-2.871,14.061-10.653,21.018-24.271,21.018-19.047,0-23.32-12.056-19.757-27.037l.347-1.487h14.782Z"/>
</svg>